<?xml version="1.0" encoding="utf-8"?>
<!-- Generator: Adobe Illustrator 25.0.1, SVG Export Plug-In . SVG Version: 6.00 Build 0)  -->
<svg version="1.1" id="Layer_1" xmlns="http://www.w3.org/2000/svg" xmlns:xlink="http://www.w3.org/1999/xlink" x="0px" y="0px"
	 viewBox="0 0 26.5 30" style="enable-background:new 0 0 26.5 30;" xml:space="preserve">
<style type="text/css">
	.st0{enable-background:new    ;}
	.st1{fill:#003869;}
</style>
<g id="Layer_2_1_">
	<g id="Layer_1-2">
		<g class="st0">
			<path class="st1" d="M4.8,22.2h-2v5.5H2.3v-5.5h-2v-0.4h4.6V22.2z"/>
		</g>
		<g class="st0">
			<path class="st1" d="M7.2,23.7c-0.1,0-0.2,0-0.3,0c-0.3,0-0.6,0.1-0.8,0.3s-0.4,0.4-0.5,0.7v3H5.1v-4.4h0.5l0,0.7
				c0.3-0.5,0.7-0.8,1.3-0.8c0.1,0,0.2,0,0.3,0.1L7.2,23.7z"/>
		</g>
		<g class="st0">
			<path class="st1" d="M10.4,27.7c0-0.1-0.1-0.3-0.1-0.6c-0.2,0.2-0.4,0.4-0.7,0.5c-0.3,0.1-0.5,0.2-0.8,0.2c-0.4,0-0.8-0.1-1-0.4
				c-0.3-0.2-0.4-0.5-0.4-0.9c0-0.4,0.2-0.8,0.5-1c0.4-0.3,0.9-0.4,1.5-0.4h0.9v-0.5c0-0.3-0.1-0.6-0.3-0.7
				c-0.2-0.2-0.5-0.3-0.9-0.3c-0.3,0-0.6,0.1-0.8,0.3C8.1,24.1,8,24.3,8,24.5l-0.5,0c0-0.4,0.2-0.7,0.5-0.9c0.3-0.3,0.7-0.4,1.2-0.4
				c0.5,0,0.9,0.1,1.2,0.4c0.3,0.2,0.4,0.6,0.4,1v2.1c0,0.4,0,0.8,0.1,1v0H10.4z M8.8,27.4c0.3,0,0.6-0.1,0.9-0.2
				c0.3-0.2,0.4-0.4,0.6-0.6v-1H9.4c-0.5,0-0.9,0.1-1.1,0.3C8,26,7.9,26.2,7.9,26.5c0,0.2,0.1,0.5,0.3,0.6S8.6,27.4,8.8,27.4z
				 M9.1,22.5V22c0.2,0,0.4-0.1,0.5-0.1c0.1-0.1,0.2-0.1,0.2-0.3c0-0.1-0.1-0.2-0.2-0.3c-0.1-0.1-0.3-0.1-0.6-0.1l0-0.3
				c0.4,0,0.7,0.1,0.9,0.2c0.2,0.1,0.3,0.3,0.3,0.5c0,0.2-0.1,0.3-0.2,0.4c-0.1,0.1-0.3,0.2-0.5,0.2l0,0.3H9.1z"/>
			<path class="st1" d="M13.4,25.5c0-0.7,0.2-1.2,0.5-1.7c0.3-0.4,0.7-0.6,1.3-0.6c0.6,0,1.1,0.2,1.4,0.7l0-0.6H17v4.3
				c0,0.6-0.2,1-0.5,1.4c-0.3,0.3-0.8,0.5-1.3,0.5c-0.3,0-0.6-0.1-0.9-0.2s-0.5-0.3-0.7-0.6l0.3-0.3c0.3,0.4,0.8,0.6,1.2,0.6
				c0.4,0,0.7-0.1,1-0.4s0.3-0.6,0.4-1v-0.6c-0.3,0.4-0.8,0.7-1.4,0.7c-0.5,0-0.9-0.2-1.2-0.6C13.6,26.8,13.4,26.2,13.4,25.5
				L13.4,25.5z M13.9,25.5c0,0.6,0.1,1,0.3,1.3c0.2,0.3,0.5,0.5,1,0.5c0.6,0,1-0.3,1.3-0.8v-2.1c-0.1-0.3-0.3-0.5-0.5-0.7
				c-0.2-0.1-0.5-0.2-0.8-0.2c-0.4,0-0.7,0.2-1,0.5C14.1,24.4,13.9,24.9,13.9,25.5z"/>
			<path class="st1" d="M17.8,25.4c0-0.4,0.1-0.8,0.2-1.2c0.2-0.3,0.4-0.6,0.7-0.8c0.3-0.2,0.6-0.3,1-0.3c0.6,0,1.1,0.2,1.4,0.6
				s0.5,1,0.5,1.6v0.1c0,0.4-0.1,0.8-0.2,1.2c-0.2,0.3-0.4,0.6-0.7,0.8c-0.3,0.2-0.6,0.3-1,0.3c-0.6,0-1.1-0.2-1.4-0.6
				C18,26.8,17.8,26.2,17.8,25.4L17.8,25.4z M18.3,25.6c0,0.5,0.1,1,0.4,1.3c0.3,0.3,0.6,0.5,1.1,0.5c0.4,0,0.8-0.2,1.1-0.5
				s0.4-0.8,0.4-1.3v-0.1c0-0.3-0.1-0.6-0.2-0.9c-0.1-0.3-0.3-0.5-0.5-0.7c-0.2-0.2-0.5-0.2-0.8-0.2c-0.4,0-0.8,0.2-1.1,0.5
				C18.4,24.5,18.3,24.9,18.3,25.6L18.3,25.6z M20.3,21.4h0.6l-0.9,1.1l-0.4,0L20.3,21.4z"/>
			<path class="st1" d="M26.1,25.5c0,0.7-0.2,1.2-0.5,1.6c-0.3,0.4-0.7,0.6-1.2,0.6c-0.6,0-1.1-0.2-1.4-0.6v2.3h-0.5v-6.1H23l0,0.6
				c0.3-0.5,0.8-0.7,1.4-0.7c0.5,0,0.9,0.2,1.2,0.6C25.9,24.2,26.1,24.8,26.1,25.5L26.1,25.5z M25.6,25.5c0-0.6-0.1-1-0.3-1.3
				s-0.6-0.5-1-0.5c-0.3,0-0.6,0.1-0.8,0.2s-0.4,0.4-0.5,0.6v2.1c0.1,0.3,0.3,0.4,0.5,0.6s0.5,0.2,0.8,0.2c0.4,0,0.7-0.2,1-0.5
				C25.5,26.6,25.6,26.1,25.6,25.5z"/>
		</g>
		<path class="st1" d="M9.4,0c4.1,0,6.5,3.1,6.5,9.1c0,6.4-2.2,10.2-6.7,10.2s-6.7-3.9-6.7-9.8S5,0,9.4,0z M9.2,1.1
			c-1.7,0-2.4,1.7-2.4,8.1c0,6.2,0.2,8.8,2.4,8.8c1.7,0,2.4-1.5,2.4-8.5C11.6,2.7,10.9,1.1,9.2,1.1z"/>
		<path class="st1" d="M18.8,11c1-0.1,1.9,0.7,2,1.7c0,0.1,0,0.1,0,0.2c0,1.1-0.9,2-2,2c-1,0.1-1.9-0.7-2-1.7c0-0.1,0-0.2,0-0.3
			C16.9,11.8,17.7,11,18.8,11z M18.8,11.4c-0.6,0-0.9,0.6-0.9,1.7c0,0.9,0.2,1.4,0.8,1.4c0.4,0,0.8-0.3,0.8-1.7
			C19.6,11.9,19.4,11.4,18.8,11.4L18.8,11.4z M22.8,11h0.3h0.3l-3.9,8.2h-0.3h-0.3L22.8,11z M23.6,15.2c1-0.1,1.9,0.7,2,1.7
			c0,0.1,0,0.1,0,0.2c0,1.1-0.9,2-2,2c-1,0.1-1.9-0.7-2-1.7c0-0.1,0-0.2,0-0.2C21.6,16.1,22.5,15.2,23.6,15.2L23.6,15.2z M23.6,15.6
			c-0.6,0-0.9,0.6-0.9,1.8c0,0.9,0.2,1.4,0.8,1.4c0.4,0,0.8-0.3,0.8-1.7C24.4,16.1,24.2,15.6,23.6,15.6L23.6,15.6z"/>
	</g>
</g>
</svg>
