<?xml version="1.0" encoding="utf-8"?>
<!-- Generator: Adobe Illustrator 26.5.0, SVG Export Plug-In . SVG Version: 6.00 Build 0)  -->
<svg version="1.1" id="Layer_1" xmlns="http://www.w3.org/2000/svg" xmlns:xlink="http://www.w3.org/1999/xlink" x="0px" y="0px"
	 viewBox="0 0 34.5 21.8" style="enable-background:new 0 0 34.5 21.8;" xml:space="preserve">
<style type="text/css">
	.st0{fill:#003468;}
	.st1{fill:url(#SVGID_1_);}
	.st2{fill:url(#SVGID_00000096033477020390068010000004695857455527798449_);}
	.st3{fill:url(#SVGID_00000013907685117998884000000008059760351689209998_);}
	.st4{fill:url(#SVGID_00000150809264048176674970000001766079614382762371_);}
	.st5{fill:url(#SVGID_00000072240444509253742740000006213411249472222613_);}
	.st6{fill:url(#SVGID_00000021827439464545546800000005148221144662899638_);}
</style>
<g>
	<g>
		<g>
			<path class="st0" d="M33.3,0.1c-0.8,0-1.7,0-1.7,0l0,7.6c0,2.4,0.1,4-0.7,5c0,0,0,0.1-0.1,0.1c0,0,0,0,0,0
				c-0.5,0.6-1,0.8-1.1,0.8c-0.1,0-0.3,0.1-0.2,0.2c0,0.1,0.2,0.1,0.6,0c0.3-0.1,0.5-0.2,0.7-0.3c0,0,0.1,0,0.1-0.1
				c1.4-0.7,1.9-1.7,2.2-2.5c0.2-0.7,0.3-1.7,0.3-2.5c0-0.7,0-1.6,0-2.2v-2c0-1.3,0-1.8,0-2.2c0,0,0-0.6,0-0.6c0-0.2,0-0.4,0.1-0.6
				c0.1-0.1,0.1-0.3,0.2-0.4c0.2-0.2,0.5-0.1,0.5-0.2C34.3,0,34,0.1,33.3,0.1z"/>
			<path class="st0" d="M17.9,0.9c-0.3-0.2-0.9-0.8-2.8-0.8c-0.7,0-3,0-3,0c-0.8,0-1.1,0-1.1,0.1c0,0.1,0.3,0.1,0.5,0.2
				c0.1,0.1,0.2,0.2,0.2,0.3c0.1,0.4,0.1,1,0.2,1.2c0,0.4,0,1.1,0,2.3v2.5c0,0.9,0,2,0,2.6c0,0.1,0,0.1,0,0.2h0c0,0,0,0,0,0
				c0,0.1,0,0.3,0,0.5c0,0,0,0,0,0.1c0,0.2-0.1,0.4-0.1,0.5c-0.1,0.1-0.1,0.2-0.2,0.3c-0.2,0.2-0.5,0.1-0.5,0.2
				c0,0.2,0.3,0.1,1.1,0.1c0.8,0,1.7,0,1.7,0l0-10.2c0-0.2,0-0.2,0.1-0.3c0.1,0,0.4-0.1,0.6-0.1c0.3,0,1,0.1,1.5,0.6
				c0.8,0.7,0.9,1.7,0.9,2.1c0,0.8-0.3,1.4-0.6,1.8c-0.7,0.7-1.2,0.6-1.3,0.6c-0.1,0-0.3,0-0.3,0.1C14.7,6,14.8,6,15.3,6
				c0.5,0,0.8-0.1,0.9-0.2c1.3-0.4,2.6-1.5,2.5-3.2C18.7,1.7,18.2,1.2,17.9,0.9z"/>
			<path class="st0" d="M27.8,0.1c-0.7,0-0.9,0-0.9,0.1c0,0.1,0.3,0.1,0.5,0.2c0.1,0.1,0.1,0.1,0.2,0.2c0.1,0.1,0.1,0.3,0.1,0.4
				c0.1,0.4,0.1,1,0.1,1l0,0l0,5.5c-0.7-0.7-6.1-6.1-7.5-7.4c0,0-0.1-0.1-0.2-0.1c-0.1,0-0.1,0.1-0.1,0.2l0,11c0,0,0.5,0,1.2,0
				c0.8,0,1.1,0,1.1-0.1c0-0.1-0.3-0.1-0.5-0.2c0,0-0.1-0.1-0.1-0.1c0,0,0,0,0,0c0,0,0,0,0,0c-0.2-0.4-0.2-1.4-0.2-1.4h0V3.8
				c0,0,6.2,6,7.6,7.4c0,0,0.1,0,0.2,0c0.1,0,0.1-0.2,0.1-0.2l0,0l0-10.9H27.8z"/>
		</g>
		<g>
			<linearGradient id="SVGID_1_" gradientUnits="userSpaceOnUse" x1="-30.3124" y1="18.269" x2="43.555" y2="18.269">
				<stop  offset="5.494510e-03" style="stop-color:#FFFFFF"/>
				<stop  offset="0.263" style="stop-color:#E6D0A1"/>
				<stop  offset="0.3785" style="stop-color:#E5CE9E"/>
				<stop  offset="0.4779" style="stop-color:#E2C793"/>
				<stop  offset="0.5711" style="stop-color:#DCBB81"/>
				<stop  offset="0.6264" style="stop-color:#D8B273"/>
				<stop  offset="0.6879" style="stop-color:#C7A469"/>
				<stop  offset="0.8092" style="stop-color:#9C8050"/>
				<stop  offset="0.9771" style="stop-color:#574527"/>
				<stop  offset="1" style="stop-color:#4D3D21"/>
			</linearGradient>
			<path class="st1" d="M13.9,14.9H6.1c-0.2,0-0.5,0.2-0.5,0.4c0,0.3,0.2,0.5,0.5,0.5h1.6c0.3,0,0.5,0.3,0.5,0.6
				c-0.1,0.2-0.3,0.4-0.5,0.4l-4.8,0c-0.3,0-0.5,0.2-0.5,0.5c0,0.3,0.2,0.5,0.5,0.5l2.9,0c0.3,0,0.5,0.3,0.5,0.6
				c0,0.2-0.3,0.4-0.5,0.4H0.6c-0.3,0-0.6,0.3-0.5,0.6c0,0.2,0.3,0.4,0.5,0.4h7c0.3,0,0.5,0.3,0.5,0.6c0,0.2-0.3,0.4-0.5,0.4H4.5
				c-0.3,0-0.5,0.2-0.5,0.5c0,0.3,0.2,0.5,0.5,0.5H9l0,0c0.2-1.4,0.3-2,0.6-3.2c0.6,0,2.8,0,3.6,0.1c0-0.2,0-0.5,0.2-0.9
				c-0.4,0-2.4,0-2.8,0c-0.3,0-0.7,0-0.9,0c0.2-0.9,0.3-1.3,0.5-2c1.1,0,2.9,0,3.6,0.1c0-0.3,0.1-0.6,0.3-0.9l0,0h0c0,0,0,0,0,0
				C14.1,14.9,14,14.9,13.9,14.9z"/>
			
				<linearGradient id="SVGID_00000081610204070836186350000008545590307753774007_" gradientUnits="userSpaceOnUse" x1="-37.0525" y1="18.2346" x2="47.2208" y2="18.2346">
				<stop  offset="5.494510e-03" style="stop-color:#FFFFFF"/>
				<stop  offset="0.263" style="stop-color:#E6D0A1"/>
				<stop  offset="0.3785" style="stop-color:#E5CE9E"/>
				<stop  offset="0.4779" style="stop-color:#E2C793"/>
				<stop  offset="0.5711" style="stop-color:#DCBB81"/>
				<stop  offset="0.6264" style="stop-color:#D8B273"/>
				<stop  offset="0.6879" style="stop-color:#C7A469"/>
				<stop  offset="0.8092" style="stop-color:#9C8050"/>
				<stop  offset="0.9771" style="stop-color:#574527"/>
				<stop  offset="1" style="stop-color:#4D3D21"/>
			</linearGradient>
			<path style="fill:url(#SVGID_00000081610204070836186350000008545590307753774007_);" d="M17.7,14.8c-0.2,0-0.3,0-0.4,0
				c-0.2,0.5-0.6,1.3-0.9,1.8c-2,3.6-2.2,4-2.8,5c0.2,0,0.4,0,0.5,0c0.2,0,0.4,0,0.6,0c0.2-0.5,0.4-1.1,0.9-1.9c0.3,0,0.7,0,1.1,0
				c0.4,0,0.7,0,1.1,0c0.1,0.7,0.2,1.1,0.3,1.9c0.3,0,0.7,0,1,0c0.3,0,0.6,0,0.9,0c-0.3-1-1.3-4.9-1.7-6.9
				C18,14.8,17.8,14.8,17.7,14.8z M16.7,19c-0.3,0-0.6,0-0.8,0l1.1-2.2l0.5,2.2C17.3,19,17.1,19,16.7,19z"/>
			
				<linearGradient id="SVGID_00000070817902628590596150000013946609329326963335_" gradientUnits="userSpaceOnUse" x1="-38.014" y1="18.2837" x2="46.2593" y2="18.2837">
				<stop  offset="5.494510e-03" style="stop-color:#FFFFFF"/>
				<stop  offset="0.263" style="stop-color:#E6D0A1"/>
				<stop  offset="0.3785" style="stop-color:#E5CE9E"/>
				<stop  offset="0.4779" style="stop-color:#E2C793"/>
				<stop  offset="0.5711" style="stop-color:#DCBB81"/>
				<stop  offset="0.6264" style="stop-color:#D8B273"/>
				<stop  offset="0.6879" style="stop-color:#C7A469"/>
				<stop  offset="0.8092" style="stop-color:#9C8050"/>
				<stop  offset="0.9771" style="stop-color:#574527"/>
				<stop  offset="1" style="stop-color:#4D3D21"/>
			</linearGradient>
			<path style="fill:url(#SVGID_00000070817902628590596150000013946609329326963335_);" d="M22.4,16.9c0,1,0.7,1.6,1.3,2
				c0.6,0.5,1,0.8,1,1.3c0,0.5-0.5,0.8-1.1,0.8c-0.6,0-1.4-0.3-1.6-1.2l-0.2,0c0,0.4-0.1,1.1-0.2,1.4c0.7,0.3,1.4,0.5,2.2,0.5
				c1.8,0,2.6-1.2,2.6-2.1c0-0.9-0.5-1.3-1.3-1.9c-0.9-0.8-1.2-1-1.2-1.5c0-0.6,0.5-0.8,1-0.8c0.6,0,0.9,0.2,1,0.4
				c0.2,0.2,0.3,0.5,0.3,0.7l0.2,0c0.1-0.5,0.2-0.9,0.4-1.3c-0.6-0.3-1.3-0.5-2-0.5C23,14.8,22.4,16,22.4,16.9z"/>
			
				<linearGradient id="SVGID_00000140709017952997654510000016824732121357692091_" gradientUnits="userSpaceOnUse" x1="-38.4947" y1="18.269" x2="45.7786" y2="18.269">
				<stop  offset="5.494510e-03" style="stop-color:#FFFFFF"/>
				<stop  offset="0.263" style="stop-color:#E6D0A1"/>
				<stop  offset="0.3785" style="stop-color:#E5CE9E"/>
				<stop  offset="0.4779" style="stop-color:#E2C793"/>
				<stop  offset="0.5711" style="stop-color:#DCBB81"/>
				<stop  offset="0.6264" style="stop-color:#D8B273"/>
				<stop  offset="0.6879" style="stop-color:#C7A469"/>
				<stop  offset="0.8092" style="stop-color:#9C8050"/>
				<stop  offset="0.9771" style="stop-color:#574527"/>
				<stop  offset="1" style="stop-color:#4D3D21"/>
			</linearGradient>
			<path style="fill:url(#SVGID_00000140709017952997654510000016824732121357692091_);" d="M31.9,14.9c-0.8,0-1.8,0-2.7,0
				c0,0.3-0.1,0.5-0.2,0.9c0.3,0,0.9-0.1,1.4-0.1c0.2,0,0.3,0,0.4,0c-0.1,1-0.8,4.3-1.3,6c0.3,0,0.6,0,0.9,0c0.3,0,0.6,0,0.9,0
				c0-0.4,0.1-0.8,0.3-2c0.6-2.6,0.8-3.5,0.9-4.1c0.2,0,0.4,0,0.6,0c0.3,0,0.7,0,1.1,0.1c0-0.3,0.1-0.6,0.2-0.9
				C33.9,14.9,32.7,14.9,31.9,14.9z"/>
			
				<linearGradient id="SVGID_00000003083044973777758520000016590562730989551035_" gradientUnits="userSpaceOnUse" x1="-35.5421" y1="15.3387" x2="48.7312" y2="15.3387">
				<stop  offset="5.494510e-03" style="stop-color:#FFFFFF"/>
				<stop  offset="0.263" style="stop-color:#E6D0A1"/>
				<stop  offset="0.3785" style="stop-color:#E5CE9E"/>
				<stop  offset="0.4779" style="stop-color:#E2C793"/>
				<stop  offset="0.5711" style="stop-color:#DCBB81"/>
				<stop  offset="0.6264" style="stop-color:#D8B273"/>
				<stop  offset="0.6879" style="stop-color:#C7A469"/>
				<stop  offset="0.8092" style="stop-color:#9C8050"/>
				<stop  offset="0.9771" style="stop-color:#574527"/>
				<stop  offset="1" style="stop-color:#4D3D21"/>
			</linearGradient>
			<path style="fill:url(#SVGID_00000003083044973777758520000016590562730989551035_);" d="M3.7,15.8h1c0.3,0,0.5-0.2,0.5-0.5
				c0-0.3-0.2-0.5-0.5-0.5h-1c-0.3,0-0.5,0.2-0.5,0.5C3.3,15.6,3.5,15.8,3.7,15.8z"/>
		</g>
	</g>
	
		<linearGradient id="SVGID_00000047743883951387324460000008644592703704997508_" gradientUnits="userSpaceOnUse" x1="4.9576" y1="26.9397" x2="4.9576" y2="-9.3211">
		<stop  offset="5.494510e-03" style="stop-color:#FFFFFF"/>
		<stop  offset="0.263" style="stop-color:#E6D0A1"/>
		<stop  offset="0.3785" style="stop-color:#E5CE9E"/>
		<stop  offset="0.4779" style="stop-color:#E2C793"/>
		<stop  offset="0.5711" style="stop-color:#DCBB81"/>
		<stop  offset="0.6264" style="stop-color:#D8B273"/>
		<stop  offset="0.6879" style="stop-color:#C7A469"/>
		<stop  offset="0.8092" style="stop-color:#9C8050"/>
		<stop  offset="0.9771" style="stop-color:#574527"/>
		<stop  offset="1" style="stop-color:#4D3D21"/>
	</linearGradient>
	<path style="fill:url(#SVGID_00000047743883951387324460000008644592703704997508_);" d="M9.5,10.2l-4.1,3.3
		c-0.4,0.3-0.9,0.3-1.2,0l-3.9-3.3C0.1,10.1,0,9.8,0,9.5V1c0-0.5,0.4-1,1-1h8c0.5,0,1,0.4,1,1v8.5C9.9,9.8,9.8,10.1,9.5,10.2z"/>
	<g>
		<path class="st0" d="M3.9,2.8c0.3,0,0.5-0.2,0.5-0.5c0-0.3-0.2-0.4-0.5-0.4c-0.3,0-0.5,0.2-0.5,0.5C3.4,2.6,3.6,2.8,3.9,2.8z
			 M3.9,1.9c0.2,0,0.2,0.2,0.2,0.4c0,0.2,0,0.4-0.2,0.4c-0.2,0-0.2-0.3-0.2-0.4C3.7,2.2,3.7,1.9,3.9,1.9z"/>
		<path class="st0" d="M7.3,2.5c0,0.1,0,0.2,0,0.3c0,0,0.1,0,0.2,0c0,0,0.1,0,0.1,0c0,0,0-0.1,0-0.1V2.2c0-0.1,0-0.2,0.1-0.2
			c0.1,0,0.1,0.1,0.1,0.3c0,0.1,0,0.3,0,0.4c0,0,0.1,0,0.1,0c0.1,0,0.1,0,0.2,0c0-0.1,0-0.1,0-0.2V2.2c0-0.1,0-0.1,0-0.2
			c0-0.1-0.2-0.1-0.2-0.1C7.7,1.9,7.6,1.9,7.6,2l0-0.1c0,0-0.1,0-0.1,0c-0.1,0-0.1,0-0.1,0c0,0.1,0,0.2,0,0.3V2.5z"/>
		<path class="st0" d="M6.7,2.8c0.3,0,0.5-0.2,0.5-0.5C7.1,2,7,1.9,6.7,1.9c-0.3,0-0.5,0.2-0.5,0.5C6.2,2.6,6.4,2.8,6.7,2.8z
			 M6.7,1.9c0.2,0,0.2,0.2,0.2,0.4c0,0.2,0,0.4-0.2,0.4c-0.2,0-0.2-0.3-0.2-0.4C6.5,2.2,6.5,1.9,6.7,1.9z"/>
		<path class="st0" d="M5.6,2.7c0,0,0.1,0,0.1,0c0.1,0,0.1,0,0.2,0c0-0.2,0-0.3,0-0.4c0-0.1,0-0.2,0.1-0.2c0,0,0.1,0,0.1,0l0,0
			c0-0.1,0-0.2,0-0.3c-0.1,0-0.2,0-0.3,0.2l0-0.2c0,0-0.1,0-0.1,0c-0.1,0-0.1,0-0.1,0c0,0.2,0,0.3,0,0.5C5.6,2.6,5.6,2.6,5.6,2.7z"
			/>
		<path class="st0" d="M2.2,1.7c0.1,0,0.1-0.1,0.1-0.1c0-0.1-0.1-0.1-0.1-0.1c-0.1,0-0.1,0.1-0.1,0.1C2.1,1.7,2.2,1.7,2.2,1.7z"/>
		<path class="st0" d="M9,7.4C9,6.9,9,6.6,8.7,6.4C8.5,6,8,6,7.7,6C7.4,6,6.9,6,6.5,6.7c0-1,0-1.8,0.1-2.6c-0.2,0-0.4,0-0.7,0
			c-0.2,0-0.5,0-0.7,0C5.3,4.8,5.3,7,5.3,7.9c0,0.7,0,1.3-0.1,2c0.2,0,0.4,0,0.7,0c0.2,0,0.5,0,0.7,0C6.5,9.5,6.5,9.1,6.5,8.6
			c0-0.3,0-1,0-1.3c0-0.4,0.3-0.6,0.6-0.6c0.5,0,0.6,0.5,0.6,1.4c0,0.1,0,1.1-0.1,1.8c0.2,0,0.4,0,0.6,0c0.2,0,0.5,0,0.7,0
			c0-0.4,0-0.8,0-1.3C9,8.2,9,7.8,9,7.4z"/>
		<path class="st0" d="M5.4,2.7C5.4,2.7,5.4,2.7,5.4,2.7C5.4,2.7,5.4,2.7,5.4,2.7c-0.1,0-0.1-0.1-0.1-0.2c0-0.2,0-0.3,0-0.5
			c0,0,0.1,0,0.2,0c0,0,0,0,0-0.1c0,0,0,0,0-0.1c-0.1,0-0.1,0-0.2,0c0-0.1,0-0.2,0-0.3l0,0c0,0-0.1,0.1-0.3,0.1c0,0.1,0,0.1,0,0.2
			c0,0-0.1,0-0.1,0c0,0,0,0,0,0.1c0,0,0,0,0,0.1C4.9,2,5,2,5,2c0,0.1,0,0.4,0,0.5c0,0.1,0,0.1,0.1,0.2c0,0,0.1,0.1,0.2,0.1
			C5.3,2.8,5.3,2.8,5.4,2.7C5.4,2.7,5.4,2.7,5.4,2.7z"/>
		<path class="st0" d="M9.2,1.9C9.2,1.9,9.2,1.9,9.2,1.9c0,0-0.1,0-0.1,0c-0.1,0-0.1,0-0.2,0c-0.1,0-0.1,0-0.2,0
			C8.5,1.9,8.3,2,8.3,2.1c0,0.1,0.1,0.2,0.2,0.3v0c-0.2,0-0.2,0.1-0.2,0.2c0,0.1,0.1,0.1,0.1,0.1v0c0,0-0.2,0-0.2,0.2
			c0,0.2,0.1,0.3,0.4,0.3c0.4,0,0.5-0.2,0.5-0.4c0-0.1,0-0.1-0.1-0.2c0,0-0.1,0-0.3-0.1c-0.2,0-0.2,0-0.2-0.1c0,0,0-0.1,0.1-0.1
			c0,0,0,0,0,0c0,0,0.1,0,0.1,0c0.2,0,0.4-0.1,0.4-0.3C9.1,2.1,9.1,2,9,2L9.2,1.9C9.2,2,9.2,2,9.2,1.9z M8.6,2.8c0,0,0.2,0,0.2,0
			C8.9,2.8,9,2.8,9,2.9c0,0.1,0,0.2-0.3,0.2C8.6,3.1,8.5,3,8.5,2.9C8.5,2.9,8.5,2.9,8.6,2.8C8.6,2.8,8.6,2.8,8.6,2.8z M8.7,2.4
			c-0.1,0-0.1-0.1-0.1-0.2c0-0.1,0-0.2,0.1-0.2c0.1,0,0.1,0.1,0.1,0.2C8.8,2.3,8.8,2.4,8.7,2.4z"/>
		<path class="st0" d="M3.2,7c0.5-0.1,1.2-0.5,1.2-1.3c0-0.9-0.9-1.3-1.8-1.3C1.6,4.5,1.1,5.1,1,5.2c0.2,0.2,0.5,0.5,0.6,0.7l0.1,0
			c0-0.4,0.1-1,0.7-1c0.6,0,0.6,0.6,0.6,0.9c0,1-0.5,1.1-0.8,1.1c-0.1,0-0.2,0-0.2,0c0,0.1,0,0.3,0,0.5c0,0,0.2,0,0.3,0
			c0.6,0,0.8,0.5,0.8,1.1c0,0.5-0.2,1.1-0.8,1.1c-0.5,0-0.8-0.4-0.8-1l-0.2,0C1.3,8.9,1.1,9.1,0.9,9.3C1.1,9.6,1.6,10,2.4,10
			c1.2,0,2.1-0.7,2.1-1.7C4.6,7.4,3.9,7.1,3.2,7z"/>
		<path class="st0" d="M2.1,2.7c0,0,0.1,0,0.1,0c0,0,0.1,0,0.2,0c0-0.1,0-0.3,0-0.5c0-0.1,0-0.3,0-0.4c0,0-0.1,0-0.1,0
			c0,0-0.1,0-0.2,0c0,0.1,0,0.3,0,0.4C2.1,2.4,2.1,2.6,2.1,2.7z"/>
		<path class="st0" d="M2.8,2.8C2.9,2.8,3,2.7,3,2.6c0,0,0,0.1,0.2,0.1c0.1,0,0.2,0,0.2-0.1c0,0,0,0,0-0.1c0,0,0,0-0.1,0
			c-0.1,0-0.1-0.1-0.1-0.1c0-0.2,0-0.3,0-0.4c0-0.1,0-0.1-0.1-0.2C3.1,1.9,3,1.9,2.9,1.9c-0.1,0-0.2,0-0.3,0.1c0,0,0,0.1,0,0.1l0,0
			c0,0,0.1-0.1,0.2-0.1C2.9,2,3,2.1,3,2.2c0,0,0,0.1-0.1,0.1C2.6,2.3,2.5,2.4,2.5,2.5C2.5,2.6,2.6,2.8,2.8,2.8z M3,2.3
			c0,0.2,0,0.2,0,0.3c0,0,0,0.1-0.1,0.1c-0.1,0-0.1-0.1-0.1-0.1C2.8,2.4,2.8,2.3,3,2.3z"/>
		<path class="st0" d="M1.4,2.8c0.2,0,0.3,0,0.5-0.1c0-0.1,0-0.2,0-0.3c0-0.1,0-0.2,0-0.2c-0.1,0-0.1,0-0.2,0c-0.1,0-0.1,0-0.2,0
			c0,0.1,0,0.2,0,0.3c0,0.1,0,0.1,0,0.2c-0.1,0-0.1,0-0.2,0C1.2,2.6,1,2.4,1,2.1c0-0.3,0.2-0.5,0.4-0.5c0.2,0,0.3,0.1,0.3,0.2l0,0
			c0-0.1,0-0.1,0.1-0.2C1.7,1.5,1.6,1.5,1.4,1.5c-0.5,0-0.7,0.3-0.7,0.6C0.7,2.5,1,2.8,1.4,2.8z"/>
	</g>
</g>
</svg>
