<?xml version="1.0" encoding="utf-8"?>
<!-- Generator: Adobe Illustrator 26.5.0, SVG Export Plug-In . SVG Version: 6.00 Build 0)  -->
<svg version="1.1" id="Layer_1" xmlns="http://www.w3.org/2000/svg" xmlns:xlink="http://www.w3.org/1999/xlink" x="0px" y="0px"
	 viewBox="0 0 15.1 17.2" style="enable-background:new 0 0 15.1 17.2;" xml:space="preserve">
<style type="text/css">
	.st0{fill:url(#SVGID_1_);}
	.st1{fill:url(#SVGID_00000054257827601956498600000002288448369944475581_);}
	.st2{fill:url(#SVGID_00000181782251809537398410000000228354567148581529_);}
	.st3{fill:url(#SVGID_00000026127018112719841860000017995534515382107303_);}
</style>
<g>
	
		<linearGradient id="SVGID_1_" gradientUnits="userSpaceOnUse" x1="-13.7861" y1="-972.0983" x2="24.946" y2="-972.0983" gradientTransform="matrix(1 0 0 -1 0 -961.0867)">
		<stop  offset="5.489999e-03" style="stop-color:#FFFFFF"/>
		<stop  offset="0.263" style="stop-color:#E6D0A1"/>
		<stop  offset="0.3785" style="stop-color:#E4CD9D"/>
		<stop  offset="0.4779" style="stop-color:#E1C693"/>
		<stop  offset="0.5711" style="stop-color:#DCBB81"/>
		<stop  offset="0.6264" style="stop-color:#D8B273"/>
		<stop  offset="0.6879" style="stop-color:#C7A469"/>
		<stop  offset="0.8092" style="stop-color:#9C7F4F"/>
		<stop  offset="0.9771" style="stop-color:#564526"/>
		<stop  offset="1" style="stop-color:#4D3D21"/>
	</linearGradient>
	<path class="st0" d="M2.6,15.8c0.5,0,0.9,0.2,1.3,0.5c0.4,0.3,0.9,0.4,1.4,0.4c1.7,0,3.5,0,5.2,0c0.3,0,0.6-0.3,0.6-0.6
		c0-0.3-0.2-0.6-0.6-0.6c-0.3,0-0.5,0-0.8,0c-0.2,0-0.4-0.1-0.4-0.3c0-0.2,0.1-0.3,0.4-0.3c0.4,0,0.9,0,1.3,0c0.4,0,0.6-0.2,0.6-0.6
		c0-0.3-0.2-0.6-0.6-0.6c-0.4,0-0.7,0-1.1,0c-0.1,0-0.2,0-0.4,0c-0.2,0-0.2-0.1-0.2-0.3c0-0.1,0.1-0.2,0.3-0.3c0.1,0,0.1,0,0.2,0
		c0.5,0,1.1,0,1.6,0c0.1,0,0.2,0,0.3,0c0.3,0,0.4-0.2,0.5-0.5c0-0.3-0.1-0.5-0.4-0.6c-0.1,0-0.2,0-0.3,0c-0.6,0-1.2,0-1.8,0
		c-0.2,0-0.3-0.1-0.3-0.3c0-0.2,0.1-0.3,0.3-0.3c0,0,0.1,0,0.1,0c0.5,0,1,0,1.5,0c0.3,0,0.5-0.2,0.6-0.4c0.1-0.4-0.2-0.7-0.6-0.7
		c-1.3,0-2.6,0-3.9,0c-0.3,0-0.4-0.3-0.3-0.5C7.5,9.1,7.8,8.4,8,7.5C8,7,8,6.5,7.8,6C7.6,5.7,7.4,5.5,7.1,5.4
		C6.7,5.3,6.3,5.6,6.4,6.1c0,0.1,0,0.2,0,0.3c0,0.3,0.1,0.5,0.1,0.8c0,0.5-0.3,1-0.6,1.4C5,9.6,4,10.4,2.6,10.6V15.8L2.6,15.8z
		 M0,16.6c0.4,0,0.9,0,1.3,0C1.8,16.6,2,16.4,2,16c0-0.9,0-1.8,0-2.8c0-0.9,0-1.9,0-2.8C2,10,1.7,9.8,1.4,9.8c-0.4,0-0.9,0-1.4,0
		V9.2c0.4,0,0.9,0,1.3,0c0.6,0,1,0.2,1.2,0.8c0.2,0,0.4-0.1,0.6-0.1c0.6-0.2,1.1-0.6,1.5-1c0.4-0.3,0.8-0.7,1-1.2
		C5.9,7.4,6,7,5.9,6.5c0-0.2-0.1-0.4-0.1-0.7c0-0.8,1-1.2,1.6-0.9c0.6,0.3,0.9,0.7,1,1.3c0.2,0.7,0.1,1.3-0.1,2
		C8.2,8.7,8,9.2,7.9,9.6c0,0.1,0,0.1-0.1,0.2c0.7,0,1.4,0,2.1,0c0.5,0,0.9,0,1.4,0c0.5,0,0.8,0.2,1.1,0.6c0.2,0.4,0.2,0.8-0.1,1.2
		c0,0,0,0,0,0c0.8,0.5,0.7,1.7-0.2,2.1c0.3,0.8,0.1,1.3-0.6,1.7c0,0,0,0.1,0.1,0.1c0.4,0.8-0.2,1.6-1,1.6c-1.8,0-3.5,0-5.3,0
		c-0.6,0-1.1-0.2-1.6-0.4c-0.3-0.2-0.6-0.3-0.9-0.4c-0.1-0.1-0.2,0-0.3,0.1c-0.2,0.4-0.5,0.7-1,0.7c-0.5,0-0.9,0-1.4,0L0,16.6
		L0,16.6z"/>
	
		<linearGradient id="SVGID_00000121244702406194988790000000063252804122773678_" gradientUnits="userSpaceOnUse" x1="-133.4593" y1="-996.3988" x2="-48.2577" y2="-1081.6002" gradientTransform="matrix(0.98 -0.199 -0.199 -0.98 -107.5845 -1034.1823)">
		<stop  offset="5.489999e-03" style="stop-color:#FFFFFF"/>
		<stop  offset="0.263" style="stop-color:#E6D0A1"/>
		<stop  offset="0.3785" style="stop-color:#E4CD9D"/>
		<stop  offset="0.4779" style="stop-color:#E1C693"/>
		<stop  offset="0.5711" style="stop-color:#DCBB81"/>
		<stop  offset="0.6264" style="stop-color:#D8B273"/>
		<stop  offset="0.6879" style="stop-color:#C7A469"/>
		<stop  offset="0.8092" style="stop-color:#9C7F4F"/>
		<stop  offset="0.9771" style="stop-color:#564526"/>
		<stop  offset="1" style="stop-color:#4D3D21"/>
	</linearGradient>
	<polygon style="fill:url(#SVGID_00000121244702406194988790000000063252804122773678_);" points="9.4,4.1 10,0 11.5,0.6 	"/>
	
		<linearGradient id="SVGID_00000074423467558941413090000012646532513464513680_" gradientUnits="userSpaceOnUse" x1="-168.2455" y1="-962.575" x2="-8.3477" y2="-1122.4728" gradientTransform="matrix(0.98 -0.199 -0.199 -0.98 -107.5845 -1034.1823)">
		<stop  offset="5.489999e-03" style="stop-color:#FFFFFF"/>
		<stop  offset="0.263" style="stop-color:#E6D0A1"/>
		<stop  offset="0.3785" style="stop-color:#E4CD9D"/>
		<stop  offset="0.4779" style="stop-color:#E1C693"/>
		<stop  offset="0.5711" style="stop-color:#DCBB81"/>
		<stop  offset="0.6264" style="stop-color:#D8B273"/>
		<stop  offset="0.6879" style="stop-color:#C7A469"/>
		<stop  offset="0.8092" style="stop-color:#9C7F4F"/>
		<stop  offset="0.9771" style="stop-color:#564526"/>
		<stop  offset="1" style="stop-color:#4D3D21"/>
	</linearGradient>
	<polygon style="fill:url(#SVGID_00000074423467558941413090000012646532513464513680_);" points="9.9,6 13.8,2.2 15.1,4 	"/>
	
		<linearGradient id="SVGID_00000028318670727832238050000012725738836175039907_" gradientUnits="userSpaceOnUse" x1="-165.0343" y1="-968.901" x2="-12.5686" y2="-1121.3667" gradientTransform="matrix(0.98 -0.199 -0.199 -0.98 -107.5845 -1034.1823)">
		<stop  offset="5.489999e-03" style="stop-color:#FFFFFF"/>
		<stop  offset="0.263" style="stop-color:#E6D0A1"/>
		<stop  offset="0.3785" style="stop-color:#E4CD9D"/>
		<stop  offset="0.4779" style="stop-color:#E1C693"/>
		<stop  offset="0.5711" style="stop-color:#DCBB81"/>
		<stop  offset="0.6264" style="stop-color:#D8B273"/>
		<stop  offset="0.6879" style="stop-color:#C7A469"/>
		<stop  offset="0.8092" style="stop-color:#9C7F4F"/>
		<stop  offset="0.9771" style="stop-color:#564526"/>
		<stop  offset="1" style="stop-color:#4D3D21"/>
	</linearGradient>
	<polygon style="fill:url(#SVGID_00000028318670727832238050000012725738836175039907_);" points="10.9,7.5 14.1,6.8 13.9,8.3 	"/>
</g>
</svg>
