<svg xmlns="http://www.w3.org/2000/svg" viewBox="0 0 12.05 12.8"><defs><style>.cls-1{fill:#1e3b6d;}</style></defs><g id="Layer_2" data-name="Layer 2"><g id="Layer_1-2" data-name="Layer 1"><path class="cls-1" d="M.67,7.3c0,1.29,0,1.59.09,2.42a.75.75,0,0,0-.23,0,.56.56,0,0,0-.2,0C.35,9.45.39,8.54.39,8c0-.21,0-1.14,0-1.34V6h.2l.17.21.6.65C2.42,8,2.54,8.12,3.22,8.81v-.2A25.85,25.85,0,0,0,3.15,6a.6.6,0,0,0,.2,0,.8.8,0,0,0,.23,0,20,20,0,0,0-.09,2.32c0,.41,0,1,0,1.43H3.33c-.17-.2-1-1.09-1.34-1.44L1.71,8,.67,7Z"/><path class="cls-1" d="M6.3,7.6A.78.78,0,0,0,6.3,8a6.35,6.35,0,0,0-.83-.06H5c0,.23,0,.47,0,.7s0,.69,0,.83a13.62,13.62,0,0,0,1.41-.06,1,1,0,0,0,0,.18.79.79,0,0,0,0,.17,6.27,6.27,0,0,0-.75,0l-1.24,0a17.39,17.39,0,0,0,.06-1.91c0-.54,0-1.26,0-1.78.37,0,.74,0,1.12,0a7.31,7.31,0,0,0,.81,0,1.11,1.11,0,0,0,0,.19.88.88,0,0,0,0,.17,3.77,3.77,0,0,0-.85-.07H5c0,.21,0,.3,0,.61s0,.41,0,.7A10.61,10.61,0,0,0,6.3,7.6Z"/><path class="cls-1" d="M11,8A14,14,0,0,0,11.57,6a.51.51,0,0,0,.23,0,.71.71,0,0,0,.25,0c-.22.55-.56,1.41-1,2.76-.18.51-.23.7-.3.94a.58.58,0,0,0-.22,0,.73.73,0,0,0-.22,0c-.21-.84-.86-2.66-1-2.93-.13.37-.75,2.12-.89,2.59,0,.11-.06.19-.1.34a.75.75,0,0,0-.23,0,.82.82,0,0,0-.23,0A36.1,36.1,0,0,0,6.71,6a.88.88,0,0,0,.28,0,1.91,1.91,0,0,0,.37,0c.2.89.66,2.34.89,3L8.64,8A19.22,19.22,0,0,0,9.23,6a.59.59,0,0,0,.23,0,.5.5,0,0,0,.2,0c.05.2.09.38.2.71.18.58.68,2,.78,2.33Z"/><path class="cls-1" d="M.91,5.21a.18.18,0,0,1-.1,0A.15.15,0,0,1,.8,5L2.35,3.2H9.66l1.46,1.71a.15.15,0,0,1,0,.21.14.14,0,0,1-.21,0L9.52,3.5h-7L1,5.16A.16.16,0,0,1,.91,5.21Z"/><path class="cls-1" d="M6,12.8l-2.1-2.09a.15.15,0,0,1,.21-.21L6,12.38l1.79-1.81a.15.15,0,0,1,.21.21Z"/><path class="cls-1" d="M.83,2.39H.15a.15.15,0,0,1,0-.3H.83a.15.15,0,0,1,0,.3Z"/><path class="cls-1" d="M2.56,2.39H1.83a.15.15,0,0,1,0-.3h.73a.15.15,0,0,1,0,.3Z"/><path class="cls-1" d="M1.35,1.86a.15.15,0,0,1-.15-.14V1a.15.15,0,0,1,.3,0v.69A.15.15,0,0,1,1.35,1.86Z"/><path class="cls-1" d="M1.35,3.59a.15.15,0,0,1-.15-.15V2.71a.15.15,0,0,1,.3,0v.73A.15.15,0,0,1,1.35,3.59Z"/><path class="cls-1" d="M3.29,1.05H2.86A.15.15,0,0,1,2.71.9.15.15,0,0,1,2.86.76h.43A.14.14,0,0,1,3.43.9.14.14,0,0,1,3.29,1.05Z"/><path class="cls-1" d="M4.37,1.05H3.91A.15.15,0,0,1,3.76.9.15.15,0,0,1,3.91.76h.46A.15.15,0,0,1,4.52.9.15.15,0,0,1,4.37,1.05Z"/><path class="cls-1" d="M3.61.72A.14.14,0,0,1,3.47.58V.15A.15.15,0,0,1,3.61,0a.15.15,0,0,1,.15.15V.58A.14.14,0,0,1,3.61.72Z"/><path class="cls-1" d="M3.61,1.81a.15.15,0,0,1-.14-.15V1.2a.15.15,0,0,1,.14-.15.15.15,0,0,1,.15.15v.46A.15.15,0,0,1,3.61,1.81Z"/></g></g></svg>