<svg xmlns="http://www.w3.org/2000/svg" width="76" height="20" viewBox="0 0 76 20">
  <g id="watch" transform="translate(3.254 -2)">
    <rect id="Rectangle_1679" data-name="Rectangle 1679" width="76" height="20" rx="10" transform="translate(-3.254 2)" fill="gray" opacity="0.069"/>
    <g id="Layer_2" data-name="Layer 2" transform="translate(5.342 6.814)">
      <g id="Layer_1" data-name="Layer 1">
        <path id="Path_2482" data-name="Path 2482" d="M4.96,10.812a2.812,2.812,0,0,0-2.007-.569H.784c-.566,0-.784-.029-.784.088s.234.039.387.156a.592.592,0,0,1,.156.2,3.19,3.19,0,0,1,.107.842c.016.3.033.761.033,1.61v3.766H.65a1.426,1.426,0,0,1-.029.341.159.159,0,0,1,0,.039,1.356,1.356,0,0,1-.081.325.546.546,0,0,1-.146.185c-.143.137-.377.078-.377.169s.215.088.784.088H2.013V10.9c0-.111.033-.169.085-.189a1.678,1.678,0,0,1,.423-.042,1.685,1.685,0,0,1,1.08.394,1.828,1.828,0,0,1,.65,1.5A1.863,1.863,0,0,1,3.8,13.817a1.226,1.226,0,0,1-.95.426c-.088,0-.208.02-.2.091s.133.088.455.068a2.556,2.556,0,0,0,.67-.124A2.315,2.315,0,0,0,5.59,12,1.555,1.555,0,0,0,4.96,10.812Z" transform="translate(0 -9.963)" fill="#121e39"/>
        <path id="Path_2483" data-name="Path 2483" d="M25.647,10.18c-.488,0-.676-.02-.676.088s.234.039.387.159a.517.517,0,0,1,.117.133,1.1,1.1,0,0,1,.094.306,4.273,4.273,0,0,1,.055.693h0v3.864c-.5-.462-4.442-4.26-5.477-5.2a.172.172,0,0,0-.14-.042c-.072,0-.091.088-.1.137v7.695h.907c.569,0,.784.029.784-.088s-.234-.039-.387-.159a.416.416,0,0,1-.091-.094V17.65h0a2.784,2.784,0,0,1-.172-1.028h0v-3.86s4.491,4.228,5.529,5.22a.169.169,0,0,0,.127.023c.075-.026.081-.111.081-.156h0V10.18Z" transform="translate(-13.435 -9.919)" fill="#121e39"/>
        <path id="Path_2484" data-name="Path 2484" d="M44.009,10.2H42.793v5.789c0,1.717.039,2.774-.485,3.512l-.052.072h0a1.6,1.6,0,0,1-.79.556c-.065.02-.2.052-.179.13s.146.059.462-.02a2.852,2.852,0,0,0,.517-.189l.078-.036a2.862,2.862,0,0,0,1.564-1.789,7.025,7.025,0,0,0,.211-1.74c.026-.507,0-1.093,0-1.522V11.139a1.876,1.876,0,0,1,.072-.446.585.585,0,0,1,.176-.247c.153-.12.387-.059.387-.159S44.575,10.2,44.009,10.2Z" transform="translate(-27.859 -9.935)" fill="#121e39"/>
        <rect id="Rectangle_1668" data-name="Rectangle 1668" width="0.784" height="0.306" rx="0.153" transform="matrix(0.79, -0.613, 0.613, 0.79, 48.862, 2.539)" fill="#121e39"/>
        <rect id="Rectangle_1669" data-name="Rectangle 1669" width="0.306" height="0.784" rx="0.153" transform="matrix(0.79, -0.613, 0.613, 0.79, 44.874, 1.698)" fill="#121e39"/>
        <rect id="Rectangle_1670" data-name="Rectangle 1670" width="0.784" height="0.306" rx="0.153" transform="matrix(0.79, -0.614, 0.614, 0.79, 44.325, 6.065)" fill="#121e39"/>
        <rect id="Rectangle_1671" data-name="Rectangle 1671" width="0.305" height="0.782" rx="0.153" transform="translate(48.402 6.446) rotate(-37.674)" fill="#121e39"/>
        <path id="Path_2485" data-name="Path 2485" d="M69.285,9.843h-.849l-2.377,6.628-2.2-6.576-.023-.075H63.23l-2.218,6.651L58.657,9.914l-.026-.072H57.74l2.9,7.919.026.072H61.3l2.215-6.462L65.7,17.759l.026.075h.631L69.227,10Z" transform="translate(-38.962 -9.679)" fill="#121e39"/>
        <path id="Path_2486" data-name="Path 2486" d="M95.069,9.72h-.7l-3.681,7.828-.075.163h.852l1-2.159h4.478l.976,2.094.029.065h.888L95.1,9.782Zm1.522,5.086H92.812L94.7,10.728Z" transform="translate(-61.142 -9.612)" fill="#121e39"/>
        <path id="Path_2487" data-name="Path 2487" d="M112.32,10.645h2.732v7.181h.81V10.645h2.732V9.89H112.32Z" transform="translate(-75.792 -9.727)" fill="#121e39"/>
        <path id="Path_2488" data-name="Path 2488" d="M166.73,9.89v3.568h-4.79V9.89h-.81v7.935h.81V14.212h4.79v3.613h.807V9.89Z" transform="translate(-108.728 -9.727)" fill="#121e39"/>
        <path id="Path_2489" data-name="Path 2489" d="M139.057,12.315l.049.127.527-.325.078-.052-.036-.085a4.188,4.188,0,1,0-4.384,5.737,4.091,4.091,0,0,0,.527.033,4.137,4.137,0,0,0,3.831-2.543l.036-.085-.6-.387-.052.127a3.4,3.4,0,0,1-1.08,1.454,3.5,3.5,0,1,1,.615-4.891A3.382,3.382,0,0,1,139.057,12.315Z" transform="translate(-88.814 -9.388)" fill="#121e39"/>
        <path id="Path_2490" data-name="Path 2490" d="M154.18,11.24l.8,1.028.693-.537-.8-1.031Z" transform="translate(-104.038 -10.273)" fill="#121e39"/>
        <path id="Path_2491" data-name="Path 2491" d="M141.769,18.285l-1.463-1.545-.065.052,1.2,1.779-.137.358.4-.059.371.143-.055-.384,1.171-1.216Z" transform="translate(-94.632 -14.349)" fill="#121e39"/>
      </g>
    </g>
  </g>
</svg>
