<svg id="hotline" xmlns="http://www.w3.org/2000/svg" xmlns:xlink="http://www.w3.org/1999/xlink" width="29.269" height="29.27" viewBox="0 0 29.269 29.27">
  <defs>
    <clipPath id="clip-path">
      <path id="Path_459" data-name="Path 459" d="M1.232,96.191A14.634,14.634,0,1,0,15.866,81.556,14.634,14.634,0,0,0,1.232,96.191" transform="translate(-1.232 -81.556)" fill="none"/>
    </clipPath>
  </defs>
  <g id="Group_269" data-name="Group 269">
    <g id="Group_263" data-name="Group 263" clip-path="url(#clip-path)">
      <path id="Path_457" data-name="Path 457" d="M1.232,81.556v0Z" transform="translate(-1.232 -81.556)" fill="#ffeebe"/>
      <rect id="Rectangle_199" data-name="Rectangle 199" width="0.341" height="29.27" fill="#ffeebe"/>
      <rect id="Rectangle_200" data-name="Rectangle 200" width="0.341" height="29.27" transform="translate(0.34)" fill="#ffeebe"/>
      <rect id="Rectangle_201" data-name="Rectangle 201" width="0.341" height="29.27" transform="translate(0.68)" fill="#ffeebe"/>
      <rect id="Rectangle_202" data-name="Rectangle 202" width="0.341" height="29.27" transform="translate(1.021)" fill="#ffeebe"/>
      <rect id="Rectangle_203" data-name="Rectangle 203" width="0.341" height="29.27" transform="translate(1.361)" fill="#ffeebe"/>
      <rect id="Rectangle_204" data-name="Rectangle 204" width="0.341" height="29.27" transform="translate(1.701)" fill="#ffeebe"/>
      <rect id="Rectangle_205" data-name="Rectangle 205" width="0.341" height="29.27" transform="translate(2.042)" fill="#ffeebe"/>
      <rect id="Rectangle_206" data-name="Rectangle 206" width="0.341" height="29.27" transform="translate(2.382)" fill="#ffeebe"/>
      <rect id="Rectangle_207" data-name="Rectangle 207" width="0.341" height="29.27" transform="translate(2.723)" fill="#ffeebe"/>
      <rect id="Rectangle_208" data-name="Rectangle 208" width="0.341" height="29.27" transform="translate(3.063)" fill="#ffeebd"/>
      <rect id="Rectangle_209" data-name="Rectangle 209" width="0.341" height="29.27" transform="translate(3.403)" fill="#ffeebd"/>
      <rect id="Rectangle_210" data-name="Rectangle 210" width="0.341" height="29.27" transform="translate(3.744)" fill="#ffedbd"/>
      <rect id="Rectangle_211" data-name="Rectangle 211" width="0.341" height="29.27" transform="translate(4.083)" fill="#feedbd"/>
      <rect id="Rectangle_212" data-name="Rectangle 212" width="0.341" height="29.27" transform="translate(4.424)" fill="#feedbd"/>
      <rect id="Rectangle_213" data-name="Rectangle 213" width="0.341" height="29.27" transform="translate(4.765)" fill="#feedbd"/>
      <rect id="Rectangle_214" data-name="Rectangle 214" width="0.341" height="29.27" transform="translate(5.105)" fill="#feedbc"/>
      <rect id="Rectangle_215" data-name="Rectangle 215" width="0.341" height="29.27" transform="translate(5.445)" fill="#feedbc"/>
      <rect id="Rectangle_216" data-name="Rectangle 216" width="0.341" height="29.27" transform="translate(5.785)" fill="#feedbc"/>
      <rect id="Rectangle_217" data-name="Rectangle 217" width="0.341" height="29.27" transform="translate(6.126)" fill="#feecbb"/>
      <rect id="Rectangle_218" data-name="Rectangle 218" width="0.341" height="29.27" transform="translate(6.467)" fill="#fdecbb"/>
      <rect id="Rectangle_219" data-name="Rectangle 219" width="0.341" height="29.27" transform="translate(6.806)" fill="#fdecbb"/>
      <rect id="Rectangle_220" data-name="Rectangle 220" width="0.341" height="29.27" transform="translate(7.147)" fill="#fdecba"/>
      <rect id="Rectangle_221" data-name="Rectangle 221" width="0.341" height="29.27" transform="translate(7.487)" fill="#fdebba"/>
      <rect id="Rectangle_222" data-name="Rectangle 222" width="0.341" height="29.27" transform="translate(7.828)" fill="#fdebba"/>
      <rect id="Rectangle_223" data-name="Rectangle 223" width="0.341" height="29.27" transform="translate(8.168)" fill="#fcebb9"/>
      <rect id="Rectangle_224" data-name="Rectangle 224" width="0.341" height="29.27" transform="translate(8.508)" fill="#fcebb9"/>
      <rect id="Rectangle_225" data-name="Rectangle 225" width="0.341" height="29.27" transform="translate(8.849)" fill="#fceab8"/>
      <rect id="Rectangle_226" data-name="Rectangle 226" width="0.341" height="29.27" transform="translate(9.189)" fill="#fceab8"/>
      <rect id="Rectangle_227" data-name="Rectangle 227" width="0.341" height="29.27" transform="translate(9.529)" fill="#fbe9b7"/>
      <rect id="Rectangle_228" data-name="Rectangle 228" width="0.341" height="29.27" transform="translate(9.87)" fill="#fbe9b7"/>
      <rect id="Rectangle_229" data-name="Rectangle 229" width="0.341" height="29.27" transform="translate(10.21)" fill="#fbe9b6"/>
      <rect id="Rectangle_230" data-name="Rectangle 230" width="0.341" height="29.27" transform="translate(10.55)" fill="#fae8b5"/>
      <rect id="Rectangle_231" data-name="Rectangle 231" width="0.341" height="29.27" transform="translate(10.891)" fill="#fae8b5"/>
      <rect id="Rectangle_232" data-name="Rectangle 232" width="0.341" height="29.27" transform="translate(11.231)" fill="#fae7b4"/>
      <rect id="Rectangle_233" data-name="Rectangle 233" width="0.341" height="29.27" transform="translate(11.572)" fill="#f9e7b3"/>
      <rect id="Rectangle_234" data-name="Rectangle 234" width="0.341" height="29.27" transform="translate(11.911)" fill="#f9e7b3"/>
      <rect id="Rectangle_235" data-name="Rectangle 235" width="0.341" height="29.27" transform="translate(12.252)" fill="#f8e6b2"/>
      <rect id="Rectangle_236" data-name="Rectangle 236" width="0.341" height="29.27" transform="translate(12.593)" fill="#f8e6b1"/>
      <rect id="Rectangle_237" data-name="Rectangle 237" width="0.341" height="29.27" transform="translate(12.932)" fill="#f8e5b0"/>
      <rect id="Rectangle_238" data-name="Rectangle 238" width="0.341" height="29.27" transform="translate(13.273)" fill="#f7e4af"/>
      <rect id="Rectangle_239" data-name="Rectangle 239" width="0.341" height="29.27" transform="translate(13.614)" fill="#f7e4ae"/>
      <rect id="Rectangle_240" data-name="Rectangle 240" width="0.341" height="29.27" transform="translate(13.954)" fill="#f6e3ae"/>
      <rect id="Rectangle_241" data-name="Rectangle 241" width="0.341" height="29.27" transform="translate(14.294)" fill="#f6e3ad"/>
      <rect id="Rectangle_242" data-name="Rectangle 242" width="0.341" height="29.27" transform="translate(14.634)" fill="#f5e2ac"/>
      <rect id="Rectangle_243" data-name="Rectangle 243" width="0.341" height="29.27" transform="translate(14.975)" fill="#f5e1ab"/>
      <rect id="Rectangle_244" data-name="Rectangle 244" width="0.341" height="29.27" transform="translate(15.316)" fill="#f4e1aa"/>
      <rect id="Rectangle_245" data-name="Rectangle 245" width="0.341" height="29.27" transform="translate(15.655)" fill="#f4e0a9"/>
      <rect id="Rectangle_246" data-name="Rectangle 246" width="0.341" height="29.27" transform="translate(15.996)" fill="#f3dfa8"/>
      <rect id="Rectangle_247" data-name="Rectangle 247" width="0.341" height="29.27" transform="translate(16.336)" fill="#f2dfa6"/>
      <rect id="Rectangle_248" data-name="Rectangle 248" width="0.341" height="29.27" transform="translate(16.676)" fill="#f2dea5"/>
      <rect id="Rectangle_249" data-name="Rectangle 249" width="0.341" height="29.27" transform="translate(17.017)" fill="#f1dda4"/>
      <rect id="Rectangle_250" data-name="Rectangle 250" width="0.341" height="29.27" transform="translate(17.357)" fill="#f1dca3"/>
      <rect id="Rectangle_251" data-name="Rectangle 251" width="0.341" height="29.27" transform="translate(17.698)" fill="#f0dca2"/>
      <rect id="Rectangle_252" data-name="Rectangle 252" width="0.341" height="29.27" transform="translate(18.038)" fill="#efdba1"/>
      <rect id="Rectangle_253" data-name="Rectangle 253" width="0.341" height="29.27" transform="translate(18.378)" fill="#efda9f"/>
      <rect id="Rectangle_254" data-name="Rectangle 254" width="0.341" height="29.27" transform="translate(18.719)" fill="#eed99e"/>
      <rect id="Rectangle_255" data-name="Rectangle 255" width="0.341" height="29.27" transform="translate(19.059)" fill="#edd89d"/>
      <rect id="Rectangle_256" data-name="Rectangle 256" width="0.341" height="29.27" transform="translate(19.399)" fill="#ecd79b"/>
      <rect id="Rectangle_257" data-name="Rectangle 257" width="0.341" height="29.27" transform="translate(19.74)" fill="#ecd69a"/>
      <rect id="Rectangle_258" data-name="Rectangle 258" width="0.341" height="29.27" transform="translate(20.08)" fill="#ebd698"/>
      <rect id="Rectangle_259" data-name="Rectangle 259" width="0.341" height="29.27" transform="translate(20.421)" fill="#ead597"/>
      <rect id="Rectangle_260" data-name="Rectangle 260" width="0.341" height="29.27" transform="translate(20.76)" fill="#e9d496"/>
      <rect id="Rectangle_261" data-name="Rectangle 261" width="0.341" height="29.27" transform="translate(21.101)" fill="#e9d394"/>
      <rect id="Rectangle_262" data-name="Rectangle 262" width="0.341" height="29.27" transform="translate(21.442)" fill="#e8d292"/>
      <rect id="Rectangle_263" data-name="Rectangle 263" width="0.341" height="29.27" transform="translate(21.781)" fill="#e7d191"/>
      <rect id="Rectangle_264" data-name="Rectangle 264" width="0.341" height="29.27" transform="translate(22.122)" fill="#e6d08f"/>
      <rect id="Rectangle_265" data-name="Rectangle 265" width="0.341" height="29.27" transform="translate(22.462)" fill="#e5ce8e"/>
      <rect id="Rectangle_266" data-name="Rectangle 266" width="0.341" height="29.27" transform="translate(22.803)" fill="#e4cd8c"/>
      <rect id="Rectangle_267" data-name="Rectangle 267" width="0.341" height="29.27" transform="translate(23.143)" fill="#e3cc8a"/>
      <rect id="Rectangle_268" data-name="Rectangle 268" width="0.341" height="29.27" transform="translate(23.483)" fill="#e2cb88"/>
      <rect id="Rectangle_269" data-name="Rectangle 269" width="0.341" height="29.27" transform="translate(23.824)" fill="#e1ca87"/>
      <rect id="Rectangle_270" data-name="Rectangle 270" width="0.341" height="29.27" transform="translate(24.164)" fill="#e0c985"/>
      <rect id="Rectangle_271" data-name="Rectangle 271" width="0.341" height="29.27" transform="translate(24.504)" fill="#dfc883"/>
      <rect id="Rectangle_272" data-name="Rectangle 272" width="0.341" height="29.27" transform="translate(24.845)" fill="#dec681"/>
      <rect id="Rectangle_273" data-name="Rectangle 273" width="0.341" height="29.27" transform="translate(25.185)" fill="#ddc57f"/>
      <rect id="Rectangle_274" data-name="Rectangle 274" width="0.341" height="29.27" transform="translate(25.525)" fill="#dcc47d"/>
      <rect id="Rectangle_275" data-name="Rectangle 275" width="0.341" height="29.27" transform="translate(25.866)" fill="#dbc37b"/>
      <rect id="Rectangle_276" data-name="Rectangle 276" width="0.341" height="29.27" transform="translate(26.206)" fill="#dac179"/>
      <rect id="Rectangle_277" data-name="Rectangle 277" width="0.341" height="29.27" transform="translate(26.547)" fill="#d9c077"/>
      <rect id="Rectangle_278" data-name="Rectangle 278" width="0.341" height="29.27" transform="translate(26.886)" fill="#d8bf75"/>
      <rect id="Rectangle_279" data-name="Rectangle 279" width="0.341" height="29.27" transform="translate(27.227)" fill="#d7bd73"/>
      <rect id="Rectangle_280" data-name="Rectangle 280" width="0.341" height="29.27" transform="translate(27.568)" fill="#d6bc71"/>
      <rect id="Rectangle_281" data-name="Rectangle 281" width="0.341" height="29.27" transform="translate(27.908)" fill="#d5ba6f"/>
      <rect id="Rectangle_282" data-name="Rectangle 282" width="0.341" height="29.27" transform="translate(28.248)" fill="#d3b96d"/>
      <rect id="Rectangle_283" data-name="Rectangle 283" width="0.341" height="29.27" transform="translate(28.589)" fill="#d2b76a"/>
      <rect id="Rectangle_284" data-name="Rectangle 284" width="0.341" height="29.27" transform="translate(28.929)" fill="#d1b668"/>
      <path id="Path_458" data-name="Path 458" d="M33.631,110.826v0Z" transform="translate(-4.361 -81.556)" fill="#d1b668"/>
    </g>
    <path id="Path_460" data-name="Path 460" d="M22.5,101.721a2.244,2.244,0,0,0-.972-1.539c-.293-.2-.587-.414-.871-.625-1.14-.847-2.431-1.807-3.46-.778a1.226,1.226,0,0,1-1.3.43c-.186-.156-.951-.8-1.744-1.589-1.006-1-1.106-1.444-.529-2.387.932-1.525.537-2.09-.775-3.964l-.058-.083c-.683-.976-1.236-1.423-1.849-1.5a2.64,2.64,0,0,0-1.926.869,4.14,4.14,0,0,0-.773,5.007,17.722,17.722,0,0,0,6.028,7.159c1.813,1.218,3.318,1.99,4.694,1.99a3.786,3.786,0,0,0,2.614-1.108,2.312,2.312,0,0,0,.924-1.883m-1.467,1.284c-1.557,1.412-3.15,1.172-6.314-.954A16.878,16.878,0,0,1,8.98,95.229a3.324,3.324,0,0,1,.569-4.064,2.137,2.137,0,0,1,1.221-.678.519.519,0,0,1,.076,0c.353.042.761.411,1.285,1.158l.058.083c1.3,1.854,1.4,2.006.747,3.08-.875,1.433-.447,2.294.651,3.381.933.924,1.8,1.644,1.84,1.674a.4.4,0,0,0,.073.049,1.972,1.972,0,0,0,2.272-.566c.482-.482,1.134-.089,2.406.856.293.218.6.443.905.65l.005,0a1.439,1.439,0,0,1,.609.929,1.572,1.572,0,0,1-.661,1.218" transform="translate(-1.862 -82.34)" fill="#003464"/>
    <path id="Path_461" data-name="Path 461" d="M17.7,88.031a.358.358,0,1,0,0,.716A6.6,6.6,0,0,1,24.29,95.34a.358.358,0,0,0,.716,0A7.317,7.317,0,0,0,17.7,88.031" transform="translate(-2.788 -82.181)" fill="#003464"/>
    <path id="Path_462" data-name="Path 462" d="M17.7,90.7a.358.358,0,1,0,0,.716A4.186,4.186,0,0,1,21.88,95.6a.357.357,0,1,0,.715,0,4.9,4.9,0,0,0-4.9-4.9" transform="translate(-2.788 -82.439)" fill="#003464"/>
    <path id="Path_463" data-name="Path 463" d="M17.7,93.257a.358.358,0,1,0,0,.716,1.874,1.874,0,0,1,1.871,1.872.358.358,0,0,0,.716,0A2.59,2.59,0,0,0,17.7,93.257" transform="translate(-2.788 -82.686)" fill="#003464"/>
    <path id="Path_464" data-name="Path 464" d="M10.868,107.888a17.808,17.808,0,0,0-.022,2.172,16.863,16.863,0,0,0,1.628-1.435c.171.068.257.1.43.161-.323.9-.484,1.356-.806,2.259-.155-.055-.231-.084-.385-.142.134-.349.2-.524.335-.873.158-.371.237-.557.393-.93a16.993,16.993,0,0,1-1.635,1.424c-.115-.052-.172-.077-.287-.131a17.762,17.762,0,0,1,.006-2.168c-.179.36-.268.54-.444.9l-.444.822c-.146-.079-.219-.119-.364-.2l1.188-2.083c.162.091.244.137.408.224" transform="translate(-2.569 -84.385)" fill="#003464"/>
    <path id="Path_465" data-name="Path 465" d="M12.952,111.3c-.156-.044-.235-.068-.391-.116l.71-2.292c.134.042.2.062.337.1l-.656,2.307" transform="translate(-2.677 -84.291)" fill="#003464"/>
    <path id="Path_466" data-name="Path 466" d="M15.449,110.753c-.494-.069-.739-.112-1.228-.217-.072.332-.108.5-.18.832a14.869,14.869,0,0,0,1.5.255c-.013.1-.019.154-.033.257a14.968,14.968,0,0,1-1.917-.35l.559-2.333a12.726,12.726,0,0,0,1.64.3l-.032.256a13.162,13.162,0,0,1-1.32-.226c-.065.3-.1.453-.162.755.48.1.722.146,1.208.213-.014.1-.022.154-.036.257m.178-1.4c-.122-.016-.182-.026-.3-.044-.125-.126-.185-.189-.3-.316-.156.076-.236.114-.4.187-.119-.026-.18-.039-.3-.067.249-.108.37-.164.609-.282l.227.042c.181.195.274.29.467.48m-.072-.8a.237.237,0,0,1-.11.165.275.275,0,0,1-.207.045.35.35,0,0,1-.176-.091.341.341,0,0,0-.151-.088.156.156,0,0,0-.1.017.113.113,0,0,0-.063.075l-.125-.058a.252.252,0,0,1,.119-.164.271.271,0,0,1,.205-.041.414.414,0,0,1,.164.09.391.391,0,0,0,.16.087.156.156,0,0,0,.1-.02.111.111,0,0,0,.057-.075l.126.058" transform="translate(-2.747 -84.328)" fill="#003464"/>
    <path id="Path_467" data-name="Path 467" d="M18.188,111.926c-.162.005-.243.008-.406.01a14.086,14.086,0,0,1-1.4-1.89c-.055.737-.082,1.106-.137,1.844-.162-.013-.243-.019-.4-.036.094-.954.139-1.432.231-2.387.14.014.21.019.35.03a13.847,13.847,0,0,0,1.359,1.9c-.01-.742-.014-1.114-.025-1.856.14,0,.209,0,.348-.009l.086,2.4" transform="translate(-2.848 -84.248)" fill="#003464"/>
    <path id="Path_468" data-name="Path 468" d="M19.946,110.807c.06.37.089.556.148.926-.159.026-.24.038-.4.06-.13-.951-.195-1.427-.326-2.377.387-.054.581-.086.965-.165a1.15,1.15,0,0,1,.715.044.662.662,0,0,1,.381.452.612.612,0,0,1-.115.585,1.2,1.2,0,0,1-.7.351c-.269.055-.4.079-.674.123m-.041-.256c.268-.043.4-.067.667-.122a.73.73,0,0,0,.427-.215.4.4,0,0,0,.074-.373.434.434,0,0,0-.23-.3.681.681,0,0,0-.439-.041c-.258.053-.388.076-.649.118.06.372.089.558.15.931" transform="translate(-2.977 -84.267)" fill="#003464"/>
    <path id="Path_469" data-name="Path 469" d="M24.43,110.452c-.151.069-.227.1-.379.167l-.434-1.021a14,14,0,0,1-1.374.514c.137.422.2.633.342,1.054-.156.051-.233.074-.389.122-.275-.92-.412-1.379-.687-2.3.136-.04.2-.061.337-.1.127.393.19.589.318.981a13.565,13.565,0,0,0,1.352-.506l-.4-.949c.131-.056.2-.085.327-.144l.99,2.185" transform="translate(-3.147 -84.339)" fill="#003464"/>
    <path id="Path_470" data-name="Path 470" d="M23.86,107.323c.141-.075.212-.114.352-.194-.072.264-.111.4-.2.66-.1.051-.146.076-.244.125.04-.237.058-.355.088-.591m1.455,2.694c-.146.079-.221.117-.368.191l-1.082-2.141c.128-.065.192-.1.317-.165.454.846.68,1.268,1.133,2.114" transform="translate(-3.096 -84.425)" fill="#003464"/>
  </g>
</svg>
