<svg id="Messenger" xmlns="http://www.w3.org/2000/svg" xmlns:xlink="http://www.w3.org/1999/xlink" width="31.239" height="31.242" viewBox="0 0 31.239 31.242">
  <defs>
    <clipPath id="clip-path">
      <path id="Path_473" data-name="Path 473" d="M15.62,0C6.822,0,0,6.447,0,15.151A14.825,14.825,0,0,0,4.9,26.358a1.234,1.234,0,0,1,.418.89l.086,2.78A1.251,1.251,0,0,0,6.65,31.242h.012a1.246,1.246,0,0,0,.5-.108l3.1-1.367A1.256,1.256,0,0,1,11.1,29.7a17.086,17.086,0,0,0,4.522.6c8.8,0,15.62-6.447,15.62-15.151S24.417,0,15.62,0Z" fill="none"/>
    </clipPath>
    <radialGradient id="radial-gradient" cx="0.193" cy="0.995" r="1.09" gradientTransform="matrix(1, 0, 0, -1, 0, 2)" gradientUnits="objectBoundingBox">
      <stop offset="0" stop-color="#09f"/>
      <stop offset="0.61" stop-color="#a033ff"/>
      <stop offset="0.935" stop-color="#ff5280"/>
      <stop offset="1" stop-color="#ff7061"/>
    </radialGradient>
    <clipPath id="clip-path-2">
      <rect id="Rectangle_288" data-name="Rectangle 288" width="31.239" height="31.242" fill="none"/>
    </clipPath>
  </defs>
  <g id="Group_278" data-name="Group 278" transform="translate(0 0)">
    <g id="Group_275" data-name="Group 275">
      <g id="Group_274" data-name="Group 274" clip-path="url(#clip-path)">
        <rect id="Rectangle_287" data-name="Rectangle 287" width="31.239" height="31.242" transform="translate(0 0)" fill="url(#radial-gradient)"/>
      </g>
    </g>
    <g id="Group_277" data-name="Group 277">
      <g id="Group_276" data-name="Group 276" clip-path="url(#clip-path-2)">
        <path id="Path_474" data-name="Path 474" d="M98.059,177.36l4.588-7.279a2.344,2.344,0,0,1,3.389-.625l3.651,2.737a.937.937,0,0,0,1.128,0l4.928-3.741a.743.743,0,0,1,1.078.988l-4.592,7.275a2.344,2.344,0,0,1-3.389.625L105.19,174.6a.937.937,0,0,0-1.128,0l-4.928,3.741a.74.74,0,0,1-1.074-.984" transform="translate(-91.819 -157.777)" fill="#fff"/>
      </g>
    </g>
  </g>
</svg>
